# xmcd CD database file
# Copyright (C) 1997 Ti Kan
# 
# Track frame offsets:
#     150
#     17043
#     36105
#     55765
#     72915
#     89005
#     105258
#     121085
#     137360
#     160835
#     182105
#     199810
#     217445
#     234763
# 
# Disc length: 3424 seconds
# 
# Revision: 1
# Processed by: cddbd v1.4b41PL1 Copyright (c) Steve Scherf et al.
# Submitted via: DiscPlay 4.0.4
# 
DISCID=bb0d5e0e
DTITLE=Shalamar - The very best of Shalamar
DYEAR=1900
DGENRE=
TTITLE0=The second time around
TTITLE1=A night to remember
TTITLE2=I can make you feel good
TTITLE3=Take that to the bank
TTITLE4=Make that move
TTITLE5=Full of fire
TTITLE6=There it is
TTITLE7=Over and over
TTITLE8=Help me
TTITLE9=Love's grown deep
TTITLE10=Uptown festival (part 1)
TTITLE11=My girl loves me
TTITLE12=The second time around (remix)
TTITLE13=A night to remember (remix)
EXTD=
EXTT0=
EXTT1=
EXTT2=
EXTT3=
EXTT4=
EXTT5=
EXTT6=
EXTT7=
EXTT8=
EXTT9=
EXTT10=
EXTT11=
EXTT12=
EXTT13=
PLAYORDER=
